<svg width="17" height="16" viewBox="0 0 10 13" fill="none" xmlns="http://www.w3.org/2000/svg">
<path d="M9.5 3.875C9.5 2.84375 8.65625 2 7.625 2C6.57031 2 5.75 2.84375 5.75 3.875C5.75 4.74219 6.3125 5.46875 7.08594 5.67969C7.0625 6.05469 6.99219 6.35938 6.82812 6.54688C6.47656 6.99219 5.67969 7.08594 4.83594 7.15625C4.17969 7.20312 3.47656 7.27344 2.9375 7.55469V4.17969C3.6875 3.94531 4.25 3.21875 4.25 2.375C4.25 1.34375 3.40625 0.5 2.375 0.5C1.32031 0.5 0.5 1.34375 0.5 2.375C0.5 3.21875 1.03906 3.94531 1.8125 4.17969V8.84375C1.03906 9.07812 0.5 9.80469 0.5 10.625C0.5 11.6797 1.32031 12.5 2.375 12.5C3.40625 12.5 4.25 11.6797 4.25 10.625C4.25 9.82812 3.73438 9.14844 3.03125 8.89062C3.10156 8.77344 3.21875 8.65625 3.38281 8.5625C3.75781 8.375 4.34375 8.32812 4.92969 8.28125C5.9375 8.1875 7.03906 8.07031 7.71875 7.25C8.04688 6.85156 8.21094 6.3125 8.21094 5.65625C8.96094 5.42188 9.5 4.71875 9.5 3.875ZM2.375 2C2.5625 2 2.75 2.1875 2.75 2.375C2.75 2.58594 2.5625 2.75 2.375 2.75C2.16406 2.75 2 2.58594 2 2.375C2 2.1875 2.16406 2 2.375 2ZM2.375 11C2.16406 11 2 10.8359 2 10.625C2 10.4375 2.16406 10.25 2.375 10.25C2.5625 10.25 2.75 10.4375 2.75 10.625C2.75 10.8359 2.5625 11 2.375 11ZM7.625 3.5C7.8125 3.5 8 3.6875 8 3.875C8 4.08594 7.8125 4.25 7.625 4.25C7.41406 4.25 7.25 4.08594 7.25 3.875C7.25 3.6875 7.41406 3.5 7.625 3.5Z" fill="#D3D4DB"/>
</svg>
