<svg width="17" height="16" viewBox="0 0 14 13" fill="none" xmlns="http://www.w3.org/2000/svg">
<path
    d="M13.6328 5.04688L13.0938 4.53125C12.9531 4.39062 12.7188 4.39062 12.5781 4.53125L12.2969 4.78906L11.6172 4.10938C11.7578 3.61719 11.6406 3.05469 11.2422 2.67969L10.1875 1.60156C8.71094 0.148438 6.34375 0.148438 4.86719 1.60156L7 2.67969V3.10156C7 3.5 7.16406 3.89844 7.44531 4.17969L8.59375 5.32812C8.99219 5.70312 9.53125 5.84375 10.0234 5.70312L10.7031 6.38281L10.4453 6.64062C10.3047 6.80469 10.3047 7.03906 10.4453 7.17969L10.9844 7.71875C11.125 7.85938 11.3594 7.85938 11.5 7.71875L13.6328 5.58594C13.7734 5.44531 13.7734 5.21094 13.6328 5.04688ZM6.90625 4.69531C6.8125 4.625 6.74219 4.50781 6.67188 4.41406L0.695312 9.99219C0.109375 10.5547 0.0859375 11.5156 0.671875 12.0781C1.23438 12.6641 2.19531 12.6406 2.75781 12.0547L8.33594 6.07812C8.24219 6.00781 8.14844 5.9375 8.05469 5.84375L6.90625 4.69531Z"
    fill="#D3D4DB"
  />
</svg>
