<svg width="10" height="13" viewBox="0 0 10 13" fill="none" xmlns="http://www.w3.org/2000/svg">
<path
    d="M5.75 3.6875V0.5H1.0625C0.734375 0.5 0.5 0.757812 0.5 1.0625V11.9375C0.5 12.2656 0.734375 12.5 1.0625 12.5H8.9375C9.24219 12.5 9.5 12.2656 9.5 11.9375V4.25H6.3125C5.98438 4.25 5.75 4.01562 5.75 3.6875ZM7.27344 8.77344H5.75V10.6484C5.75 10.8359 5.5625 11.0234 5.375 11.0234H4.625C4.41406 11.0234 4.25 10.8359 4.25 10.6484V8.77344H2.70312C2.375 8.77344 2.21094 8.35156 2.44531 8.11719L4.69531 5.86719C4.85938 5.72656 5.11719 5.72656 5.28125 5.86719L7.53125 8.11719C7.76562 8.35156 7.60156 8.77344 7.27344 8.77344ZM9.33594 2.96094L7.03906 0.664062C6.92188 0.570312 6.78125 0.5 6.64062 0.5H6.5V3.5H9.5V3.35938C9.5 3.21875 9.42969 3.07812 9.33594 2.96094Z"
    fill="#D3D4DB"
  />
</svg>
