<svg width="16" height="10" viewBox="0 0 16 10" fill="none" xmlns="http://www.w3.org/2000/svg">
<path
    d="M15.0781 3.10938L8.53906 1.09375C8.1875 0.976562 7.78906 0.976562 7.4375 1.09375L0.898438 3.10938C0.359375 3.27344 0.359375 4 0.898438 4.16406L2.04688 4.51562C1.78906 4.82031 1.64844 5.21875 1.625 5.61719C1.39062 5.75781 1.25 5.99219 1.25 6.25C1.25 6.50781 1.36719 6.71875 1.55469 6.85938L0.96875 9.55469C0.921875 9.78906 1.08594 10 1.32031 10H2.65625C2.89062 10 3.05469 9.78906 3.00781 9.55469L2.42188 6.85938C2.60938 6.71875 2.75 6.50781 2.75 6.25C2.75 5.99219 2.58594 5.75781 2.375 5.64062C2.39844 5.28906 2.5625 4.96094 2.86719 4.77344L7.4375 6.17969C7.64844 6.25 8.07031 6.32031 8.53906 6.17969L15.0781 4.16406C15.6172 4 15.6172 3.27344 15.0781 3.10938ZM8.75 6.90625C8.09375 7.09375 7.50781 7 7.22656 6.90625L3.82812 5.85156L3.5 8.5C3.5 9.34375 5.49219 10 8 10C10.4844 10 12.5 9.34375 12.5 8.5L12.1484 5.85156L8.75 6.90625Z"
    fill="#D3D4DB"
  />
</svg>
