<svg width="17" height="16" viewBox="0 0 12 13" fill="none" xmlns="http://www.w3.org/2000/svg">
<path
    d="M5.0625 0.5C4.73438 0.5 4.5 0.757812 4.5 1.0625V5H2.4375C2.01562 5 1.80469 5.51562 2.10938 5.82031L5.67188 9.38281C5.83594 9.54688 6.14062 9.54688 6.30469 9.38281L9.86719 5.82031C10.1719 5.51562 9.96094 5 9.53906 5H7.5V1.0625C7.5 0.757812 7.24219 0.5 6.9375 0.5H5.0625ZM12 9.3125C12 9.00781 11.7422 8.75 11.4375 8.75H7.99219L6.84375 9.89844C6.375 10.3906 5.60156 10.3906 5.13281 9.89844L3.98438 8.75H0.5625C0.234375 8.75 0 9.00781 0 9.3125V11.9375C0 12.2656 0.234375 12.5 0.5625 12.5H11.4375C11.7422 12.5 12 12.2656 12 11.9375V9.3125ZM9.09375 11.375C9.09375 11.6328 8.88281 11.8438 8.625 11.8438C8.36719 11.8438 8.15625 11.6328 8.15625 11.375C8.15625 11.1172 8.36719 10.9062 8.625 10.9062C8.88281 10.9062 9.09375 11.1172 9.09375 11.375ZM10.5938 11.375C10.5938 11.6328 10.3828 11.8438 10.125 11.8438C9.86719 11.8438 9.65625 11.6328 9.65625 11.375C9.65625 11.1172 9.86719 10.9062 10.125 10.9062C10.3828 10.9062 10.5938 11.1172 10.5938 11.375Z"
    fill="#D3D4DB"
  />
</svg>
