<?xml version="1.0" encoding="UTF-8" standalone="no"?>
<svg
   viewBox="0 0 32 32"
   version="1.1">
  <defs
     id="defs4">
    <style
       id="style2">.cls-1{fill:none;}</style>
  </defs>
  <title
     id="title6" />
  <g
     data-name="Layer 2"
     id="Layer_2">
    <path
       d="M26,29H6a1,1,0,0,1-1-1V4A1,1,0,0,1,6,3H20a1,1,0,0,1,.71.29l6,6A1,1,0,0,1,27,10V28A1,1,0,0,1,26,29ZM7,27H25V10.41L19.59,5H7Z"
       id="path8"
       fill="#D3D4DB" />
    <path
       d="M26,11H20a1,1,0,0,1-1-1V4a1,1,0,0,1,.62-.92,1,1,0,0,1,1.09.21l6,6a1,1,0,0,1,.21,1.09A1,1,0,0,1,26,11ZM21,9h2.59L21,6.41Z"
       id="path10"
       fill="#D3D4DB" />
    <path
       d="M26,24H6a1,1,0,0,1,0-2H26a1,1,0,0,1,0,2Z"
       id="path12"
       fill="#D3D4DB" />
    <path
       d="M16,14H10a1,1,0,0,1,0-2h6a1,1,0,0,1,0,2Z"
       id="path14"
       fill="#D3D4DB" />
    <path
       d="M21,18H10a1,1,0,0,1,0-2H21a1,1,0,0,1,0,2Z"
       id="path16"
       fill="#D3D4DB" />
  </g>
  <g
     id="frame">
    <rect
       class="cls-1"
       height="32"
       width="32"
       id="rect19" />
  </g>
</svg>
