<svg viewBox="0 0 1280 640" fill="none" xmlns="http://www.w3.org/2000/svg">
<path fill-rule="evenodd" clip-rule="evenodd" d="M876.672 403.202C861.853 408.566 853.604 424.252 858.263 438.209C862.922 452.167 878.736 459.144 893.555 453.781C908.374 448.417 916.623 432.731 911.964 418.774C907.305 404.817 891.491 397.839 876.672 403.202ZM393.035 261.378C396.904 261.378 398.838 263.313 398.838 267.182V449.021C398.838 452.889 396.904 454.824 393.035 454.824H354.732C350.863 454.824 348.929 452.889 348.929 449.021V267.182C348.929 263.313 350.863 261.378 354.732 261.378H393.035ZM550.499 259.831C592.671 259.831 607.372 288.461 607.372 327.924V449.021C607.372 452.889 605.438 454.824 601.569 454.824H563.267C559.398 454.824 557.463 452.889 557.463 449.021V322.12C557.463 308.966 547.791 304.323 536.571 304.323H531.929C515.292 304.323 503.299 311.287 499.043 318.251V449.021C499.043 452.889 497.108 454.824 493.239 454.824H454.937C451.068 454.824 449.134 452.889 449.134 449.021V267.182C449.134 263.313 451.068 261.378 454.937 261.378H493.239C497.108 261.378 499.043 263.313 499.043 267.182V284.205C504.846 274.533 519.548 259.831 548.178 259.831H550.499ZM697.905 184C701.774 184 703.708 185.935 703.708 189.803V324.055L758.647 266.021C760.968 263.313 764.45 261.378 767.546 261.378H807.395C812.425 261.378 817.067 267.182 810.103 274.533L752.457 336.435L819.776 444.378C822.097 448.634 821.71 454.824 815.133 454.824H778.765C773.736 454.824 769.093 453.276 765.998 447.86L718.797 369.708L703.708 384.797V449.021C703.708 452.889 701.774 454.824 697.905 454.824H659.603C655.734 454.824 653.799 452.889 653.799 449.021V189.803C653.799 185.935 655.734 184 659.603 184H697.905ZM366.377 193.192C351.853 197.583 343.114 212.237 346.872 225.896C350.631 239.554 365.473 247.078 379.997 242.687C394.52 238.296 403.26 223.641 399.501 209.983C395.743 196.325 380.9 188.801 366.377 193.192Z" fill="#D8B6FF"/>
<path fill-rule="evenodd" clip-rule="evenodd" d="M871.936 358.164L863.505 358.101C859.636 358.101 857.702 356.167 857.702 352.298V189.803C857.702 185.935 859.636 184 863.505 184H902.968C906.837 184 908.772 185.935 908.772 189.803L908.748 195.287C893.74 198.943 882.054 214.236 881.119 233.305C880.368 248.621 886.743 262.495 896.82 270.345C889.313 275.453 883.795 284.079 882.412 294.41C880.906 305.658 884.652 316.314 891.598 323.359C884.587 326.437 878.201 332.727 874.567 341.021C871.998 346.885 871.196 352.857 871.936 358.164Z" fill="#D8B6FF"/>
<path fill-rule="evenodd" clip-rule="evenodd" d="M884.126 345.023C881.249 351.589 883.45 358.522 889.037 360.496C894.624 362.47 901.495 358.741 904.372 352.175C907.249 345.608 905.048 338.675 899.461 336.702C893.874 334.728 887.003 338.457 884.126 345.023ZM894.545 296.951C892.625 307.116 897.985 316.66 906.509 318.249C915.032 319.839 923.511 312.875 925.432 302.71C927.353 292.544 921.992 283 913.469 281.411C904.945 279.822 896.466 286.785 894.545 296.951ZM892.404 237.035C891.722 250.945 900.658 262.909 912.346 263.735C924.034 264.562 934.077 253.94 934.759 240.03C935.441 226.12 926.505 214.156 914.817 213.33C903.129 212.504 893.086 223.126 892.404 237.035Z" fill="#D8B6FF"/>
<rect rx="8" transform="matrix(1 0 0 -1 960 455)" fill="#5A007E"/>
<path d="M176 263C176 258.582 179.582 255 184 255H208C212.418 255 216 258.582 216 263V287C216 291.418 212.418 295 208 295H184C179.582 295 176 291.418 176 287V263Z" fill="#5A007E"/>
<path d="M176 447C176 451.418 179.582 455 184 455H208C212.418 455 216 451.418 216 447V423C216 418.582 212.418 415 208 415H184C179.582 415 176 418.582 176 423V447Z" fill="#5A007E"/>
<path d="M216 303C216 298.582 219.582 295 224 295H248C252.418 295 256 298.582 256 303V327C256 331.418 252.418 335 248 335H224C219.582 335 216 331.418 216 327V303Z" fill="#5A007E"/>
<path d="M216 407C216 411.418 219.582 415 224 415H248C252.418 415 256 411.418 256 407V383C256 378.582 252.418 375 248 375H224C219.582 375 216 378.582 216 383V407Z" fill="#5A007E"/>
<path d="M256 343C256 338.582 259.582 335 264 335H288C292.418 335 296 338.582 296 343V367C296 371.418 292.418 375 288 375H264C259.582 375 256 371.418 256 367V343Z" fill="#5A007E"/>
</svg>
