<svg width="17" height="16" viewBox="0 0 17 16" fill="none" xmlns="http://www.w3.org/2000/svg">
<path
    fill-rule="evenodd"
    clip-rule="evenodd"
    d="M9.76001 1.17C9.38001 -0.39 7.16001 -0.39 6.78001 1.17C6.72328 1.40442 6.612 1.62213 6.45524 1.80541C6.29847 1.9887 6.10064 2.13238 5.87786 2.22477C5.65507 2.31716 5.41362 2.35564 5.17315 2.33709C4.93268 2.31854 4.69999 2.24347 4.49401 2.118C3.12201 1.282 1.55201 2.852 2.38801 4.224C2.92801 5.11 2.44901 6.266 1.44101 6.511C-0.119986 6.89 -0.119986 9.111 1.44101 9.489C1.67549 9.54581 1.89324 9.65719 2.07652 9.81407C2.25981 9.97096 2.40345 10.1689 2.49575 10.3918C2.58805 10.6147 2.62641 10.8563 2.60768 11.0968C2.58896 11.3373 2.51369 11.5701 2.38801 11.776C1.55201 13.148 3.12201 14.718 4.49401 13.882C4.69995 13.7563 4.93266 13.6811 5.1732 13.6623C5.41373 13.6436 5.65529 13.682 5.87819 13.7743C6.1011 13.8666 6.29906 14.0102 6.45594 14.1935C6.61283 14.3768 6.72421 14.5945 6.78101 14.829C7.16001 16.39 9.38101 16.39 9.75901 14.829C9.81601 14.5946 9.9275 14.377 10.0844 14.1939C10.2413 14.0107 10.4393 13.8672 10.6621 13.7749C10.8849 13.6826 11.1264 13.6442 11.3669 13.6628C11.6073 13.6815 11.84 13.7565 12.046 13.882C13.418 14.718 14.988 13.148 14.152 11.776C14.0266 11.57 13.9515 11.3373 13.9329 11.0969C13.9143 10.8564 13.9526 10.6149 14.0449 10.3921C14.1372 10.1692 14.2807 9.97133 14.4639 9.81441C14.6471 9.65749 14.8647 9.546 15.099 9.489C16.66 9.11 16.66 6.889 15.099 6.511C14.8645 6.45419 14.6468 6.34281 14.4635 6.18593C14.2802 6.02904 14.1366 5.83109 14.0443 5.60818C13.952 5.38527 13.9136 5.14372 13.9323 4.90318C13.9511 4.66265 14.0263 4.42994 14.152 4.224C14.988 2.852 13.418 1.282 12.046 2.118C11.8401 2.24368 11.6074 2.31895 11.3668 2.33767C11.1263 2.35639 10.8847 2.31804 10.6618 2.22574C10.4389 2.13344 10.241 1.9898 10.0841 1.80651C9.9272 1.62323 9.81582 1.40548 9.75901 1.171L9.76001 1.17ZM8.27001 11C9.06566 11 9.82873 10.6839 10.3913 10.1213C10.9539 9.55871 11.27 8.79565 11.27 8C11.27 7.20435 10.9539 6.44129 10.3913 5.87868C9.82873 5.31607 9.06566 5 8.27001 5C7.47436 5 6.7113 5.31607 6.14869 5.87868C5.58608 6.44129 5.27001 7.20435 5.27001 8C5.27001 8.79565 5.58608 9.55871 6.14869 10.1213C6.7113 10.6839 7.47436 11 8.27001 11Z"
    fill="#D3D4DB"
  />
</svg>
